# xmcd
#
# Track frame offsets:
#	150
#	12210
#	30997
#	46010
#	61745
#	76750
#	93955
#	109445
#	123035
#	139675
#	154902
#	167620
#	178525
#	192965
#	205660
#	219112
#	230990
#
# Disc length: 3271 seconds
#
# Revision: 4
# Processed by: cddbd v1.5.2PL0 Copyright (c) Steve Scherf et al.
# Submitted via: EasyCDDAExtractor 15.3.0.1
#
DISCID=ce0cc511
DTITLE=Agnetha Faltskog - Agnetha Faltskogs Svensktoppar
DYEAR=1998
DGENRE=Pop
TTITLE0=Tack För En Underbar Vanlig Dag
TTITLE1=När Du Tar Mig I Din Famn
TTITLE2=Jag Var Så Kär
TTITLE3=Om Tårar Vore Guld
TTITLE4=Vart Ska Min Kärlek Föra
TTITLE5=En Sång Om Sorg Och Glädje
TTITLE6=Dröm Är Dröm Och Saga Saga
TTITLE7=Så Glad Som Dina Ögon
TTITLE8=En Sång Och En Saga
TTITLE9=SOS
TTITLE10=Doktorn
TTITLE11=Fram För Svenska Sommaren
TTITLE12=Allting Har Förändrat Sig
TTITLE13=Utan Dej Mitt Liv Går Vidare
TTITLE14=Zigenarvän
TTITLE15=Många Gånger Än
TTITLE16=Sången Föder Dig Tillbaka
EXTD=
EXTT0=
EXTT1=
EXTT2=
EXTT3=
EXTT4=
EXTT5=
EXTT6=
EXTT7=
EXTT8=
EXTT9=
EXTT10=
EXTT11=
EXTT12=
EXTT13=
EXTT14=
EXTT15=
EXTT16=
PLAYORDER=
